<svg width="22" height="26" viewBox="0 0 22 26" fill="none" xmlns="http://www.w3.org/2000/svg">
<g clip-path="url(#clip0_1_46)">
<path d="M17.8165 13.6848C17.8049 11.7143 18.6997 10.2292 20.5066 9.13415C19.496 7.68951 17.9671 6.89496 15.9517 6.74183C14.0434 6.59158 11.9556 7.85131 11.1911 7.85131C10.3832 7.85131 8.53574 6.79383 7.08209 6.79383C4.08213 6.84006 0.893937 9.18038 0.893937 13.9419C0.893937 15.349 1.15166 16.8023 1.66709 18.2989C2.35628 20.2694 4.8408 25.0974 7.43247 25.0194C8.78767 24.9876 9.74615 24.0602 11.5096 24.0602C13.221 24.0602 14.1071 25.0194 15.6187 25.0194C18.2335 24.9818 20.4806 20.593 21.135 18.6168C17.6283 16.967 17.8165 13.7859 17.8165 13.6848ZM14.7731 4.87246C16.2413 3.13312 16.1081 1.54979 16.0646 0.980606C14.7673 1.05573 13.2673 1.86184 12.4131 2.85286C11.472 3.91611 10.9189 5.23073 11.0376 6.71293C12.4392 6.81984 13.7191 6.10041 14.7731 4.87246Z" fill="#FCE029"/>
</g>
<defs>
<clipPath id="clip0_1_46">
<rect width="22" height="26" fill="white"/>
</clipPath>
</defs>
</svg>
