<svg width="20" height="18" viewBox="0 0 20 18" fill="none" xmlns="http://www.w3.org/2000/svg">
<path d="M18.8671 16.0072C18.2778 15.4819 17.7619 14.8796 17.3332 14.2167C16.8652 13.3016 16.5848 12.3022 16.5082 11.2772V8.25833C16.5057 7.89163 16.473 7.52576 16.4104 7.16444C15.9294 7.06829 15.4672 6.89494 15.0415 6.65111C15.2038 7.17351 15.2862 7.71742 15.286 8.26444V11.2833C15.3609 12.5337 15.7048 13.7531 16.2943 14.8583C16.7162 15.5269 17.2169 16.1424 17.7854 16.6917H2.13488C2.70346 16.1424 3.20408 15.5269 3.62599 14.8583C4.21548 13.7531 4.55942 12.5337 4.63432 11.2833V8.25833C4.63111 7.55108 4.76743 6.85015 5.03548 6.19566C5.30354 5.54117 5.69806 4.94598 6.19646 4.44418C6.69485 3.94237 7.28734 3.54381 7.93999 3.2713C8.59264 2.9988 9.29263 2.85771 9.99988 2.85611C11.035 2.85693 12.0468 3.16304 12.9088 3.73611C12.8137 3.38715 12.7604 3.02817 12.7499 2.66666V2.28166C12.1118 1.96777 11.4263 1.76129 10.721 1.67055V0.90055C10.721 0.684178 10.635 0.476667 10.482 0.323669C10.329 0.17067 10.1215 0.0847168 9.90516 0.0847168C9.68878 0.0847168 9.48127 0.17067 9.32828 0.323669C9.17528 0.476667 9.08932 0.684178 9.08932 0.90055V1.70111C7.51004 1.92389 6.06468 2.7105 5.02007 3.91573C3.97547 5.12096 3.40216 6.66341 3.40599 8.25833V11.2772C3.32945 12.3022 3.04897 13.3016 2.58099 14.2167C2.15986 14.8781 1.65222 15.4803 1.07155 16.0072C1.00636 16.0645 0.954117 16.135 0.918291 16.214C0.882466 16.293 0.863879 16.3788 0.86377 16.4655V17.2967C0.86377 17.4587 0.928154 17.6142 1.04276 17.7288C1.15737 17.8434 1.3128 17.9078 1.47488 17.9078H18.4638C18.6258 17.9078 18.7813 17.8434 18.8959 17.7288C19.0105 17.6142 19.0749 17.4587 19.0749 17.2967V16.4655C19.0748 16.3788 19.0562 16.293 19.0204 16.214C18.9845 16.135 18.9323 16.0645 18.8671 16.0072Z" fill="white"/>
</svg>
