<svg width="28" height="28" viewBox="0 0 28 28" fill="none" xmlns="http://www.w3.org/2000/svg">
<g clip-path="url(#clip0_58_111)">
<path d="M24.9822 7.77777H3.01776C2.62996 7.77777 2.25804 7.93183 1.98382 8.20605C1.7096 8.48027 1.55554 8.85219 1.55554 9.23999V23.4267C1.55554 23.8145 1.7096 24.1864 1.98382 24.4606C2.25804 24.7348 2.62996 24.8889 3.01776 24.8889H24.9822C25.37 24.8889 25.7419 24.7348 26.0162 24.4606C26.2904 24.1864 26.4444 23.8145 26.4444 23.4267V9.23999C26.4444 8.85219 26.2904 8.48027 26.0162 8.20605C25.7419 7.93183 25.37 7.77777 24.9822 7.77777ZM24.8889 23.3333H3.1111V9.33333H24.8889V23.3333Z" fill="#969696"/>
<path d="M6.6578 15.1278C7.11929 15.1278 7.57041 14.9909 7.95413 14.7346C8.33784 14.4782 8.63691 14.1137 8.81352 13.6874C8.99012 13.261 9.03633 12.7919 8.9463 12.3392C8.85626 11.8866 8.63403 11.4709 8.30771 11.1445C7.98139 10.8182 7.56563 10.596 7.11301 10.506C6.66038 10.4159 6.19123 10.4621 5.76487 10.6387C5.33851 10.8153 4.97409 11.1144 4.7177 11.4981C4.46131 11.8818 4.32446 12.333 4.32446 12.7945C4.32446 13.4133 4.5703 14.0068 5.00788 14.4444C5.44547 14.882 6.03896 15.1278 6.6578 15.1278ZM6.6578 11.55C6.90516 11.5438 7.14874 11.6115 7.35744 11.7444C7.56614 11.8774 7.73048 12.0695 7.82945 12.2963C7.92843 12.5231 7.95756 12.7742 7.91311 13.0176C7.86866 13.261 7.75266 13.4856 7.57993 13.6628C7.40719 13.84 7.18557 13.9616 6.94336 14.0122C6.70115 14.0628 6.44936 14.0401 6.22014 13.9468C5.99093 13.8536 5.79471 13.6942 5.65655 13.489C5.51838 13.2837 5.44454 13.0419 5.44446 12.7945C5.44436 12.4697 5.57119 12.1578 5.79788 11.9253C6.02458 11.6928 6.33317 11.5581 6.6578 11.55Z" fill="#969696"/>
<path d="M6.14449 21.7778L10.8112 17.1111L13.2845 19.5844L11.0912 21.7778H12.6467L18.4489 15.9756L23.3334 20.8211V19.2656L18.8223 14.7778C18.7188 14.6752 18.5791 14.6176 18.4334 14.6176C18.2877 14.6176 18.1479 14.6752 18.0445 14.7778L14.0312 18.7911L11.1767 15.9444C11.0733 15.8418 10.9335 15.7843 10.7878 15.7843C10.6421 15.7843 10.5024 15.8418 10.3989 15.9444L4.60449 21.7778H6.14449Z" fill="#969696"/>
<path d="M23.4422 2.33332C23.4422 2.12704 23.3602 1.92921 23.2144 1.78335C23.0685 1.63749 22.8707 1.55554 22.6644 1.55554H5.55329C5.34701 1.55554 5.14918 1.63749 5.00332 1.78335C4.85746 1.92921 4.77551 2.12704 4.77551 2.33332V3.1111H23.4422V2.33332Z" fill="#969696"/>
<path d="M24.9822 5.44446C24.9822 5.23819 24.9003 5.04035 24.7544 4.89449C24.6086 4.74863 24.4107 4.66669 24.2045 4.66669H3.98225C3.77597 4.66669 3.57814 4.74863 3.43227 4.89449C3.28641 5.04035 3.20447 5.23819 3.20447 5.44446V6.22224H24.9822V5.44446Z" fill="#969696"/>
</g>
<defs>
<clipPath id="clip0_58_111">
<rect width="28" height="28" fill="white"/>
</clipPath>
</defs>
</svg>
