<svg width="17" height="19" viewBox="0 0 17 19" fill="none" xmlns="http://www.w3.org/2000/svg">
<path d="M15.6875 16.9453H13.3516V17.8438C13.3516 17.9867 13.2948 18.1238 13.1937 18.2249C13.0926 18.326 12.9555 18.3828 12.8125 18.3828C12.6695 18.3828 12.5324 18.326 12.4313 18.2249C12.3302 18.1238 12.2734 17.9867 12.2734 17.8438V16.9453H4.72656V17.8438C4.72656 17.9867 4.66977 18.1238 4.56867 18.2249C4.46758 18.326 4.33047 18.3828 4.1875 18.3828C4.04453 18.3828 3.90742 18.326 3.80633 18.2249C3.70523 18.1238 3.64844 17.9867 3.64844 17.8438V16.9453H1.3125C0.978907 16.9453 0.658978 16.8128 0.423092 16.5769C0.187207 16.341 0.0546875 16.0211 0.0546875 15.6875V1.3125C0.0546875 0.978907 0.187207 0.658978 0.423092 0.423092C0.658978 0.187206 0.978907 0.0546875 1.3125 0.0546875H15.6875C16.0211 0.0546875 16.341 0.187206 16.5769 0.423092C16.8128 0.658978 16.9453 0.978907 16.9453 1.3125V15.6875C16.9453 16.0211 16.8128 16.341 16.5769 16.5769C16.341 16.8128 16.0211 16.9453 15.6875 16.9453ZM1.3125 15.8672H3.64844V14.9688C3.64844 14.8258 3.70523 14.6887 3.80633 14.5876C3.90742 14.4865 4.04453 14.4297 4.1875 14.4297C4.33047 14.4297 4.46758 14.4865 4.56867 14.5876C4.66977 14.6887 4.72656 14.8258 4.72656 14.9688V15.8672H12.2734V14.9688C12.2734 14.8258 12.3302 14.6887 12.4313 14.5876C12.5324 14.4865 12.6695 14.4297 12.8125 14.4297C12.9555 14.4297 13.0926 14.4865 13.1937 14.5876C13.2948 14.6887 13.3516 14.8258 13.3516 14.9688V15.8672H15.6875C15.7352 15.8672 15.7809 15.8483 15.8146 15.8146C15.8483 15.7809 15.8672 15.7352 15.8672 15.6875V12.6328H1.13281V15.6875C1.13281 15.7352 1.15174 15.7809 1.18544 15.8146C1.21914 15.8483 1.26484 15.8672 1.3125 15.8672ZM15.6875 1.13281H1.3125C1.26484 1.13281 1.21914 1.15174 1.18544 1.18544C1.15174 1.21914 1.13281 1.26484 1.13281 1.3125V11.5547H15.8672V1.3125C15.8672 1.26484 15.8483 1.21914 15.8146 1.18544C15.7809 1.15174 15.7352 1.13281 15.6875 1.13281Z" fill="white"/>
</svg>
