<svg width="204" height="223" viewBox="0 0 204 223" fill="none" xmlns="http://www.w3.org/2000/svg">
<path d="M193.498 81.425C193.498 81.425 161.695 104.318 190.116 162.68C215.358 214.511 145.93 229.203 117.446 220.714C80.5471 209.717 63.5525 160.09 33.333 172.37C3.11341 184.649 -18.775 113.637 25.4916 92.5688C80.5581 66.3614 48.9144 44.973 55.8052 22.5173C60.7508 6.40065 110.951 -14.4007 133.887 17.0873C153.187 43.5832 164.654 35.8818 174.87 33.5823C189.603 30.266 218.407 57.7188 193.498 81.425Z" fill="#DEE9FF"/>
<path d="M193.879 101.868L193.661 103.224C193.479 104.354 192.857 105.365 191.929 106.036C191.002 106.706 189.847 106.981 188.717 106.799L188.618 106.784C187.666 106.631 186.691 106.801 185.847 107.267C185.004 107.733 184.34 108.468 183.963 109.355L153.37 181.307C152.487 183.386 150.934 185.11 148.957 186.204C146.98 187.297 144.694 187.696 142.463 187.338L57.1425 173.63C54.8622 173.269 52.775 172.136 51.23 170.42C49.685 168.705 48.776 166.51 48.6549 164.205L44.418 87.0557C44.364 86.0723 43.9751 85.1369 43.316 84.4051C42.6568 83.6733 41.7671 83.189 40.7947 83.0328C40.2353 82.9429 39.6991 82.7437 39.2168 82.4466C38.7344 82.1495 38.3152 81.7603 37.9832 81.3012C37.6513 80.8422 37.413 80.3222 37.2819 79.771C37.1509 79.2198 37.1298 78.6482 37.2197 78.0888L37.4375 76.7329C37.5274 76.1736 37.7265 75.6374 38.0236 75.155C38.3207 74.6726 38.7099 74.2534 39.169 73.9214C39.628 73.5895 40.148 73.3511 40.6992 73.2201C41.2504 73.0891 41.8219 73.0679 42.3813 73.1578L78.5237 78.9647C79.0788 79.0539 79.6478 78.9808 80.1623 78.7541C80.6768 78.5274 81.1148 78.1569 81.4235 77.687L106.666 39.2771C107 38.7661 107.475 38.3628 108.033 38.1157C108.591 37.8686 109.209 37.7883 109.812 37.8845C110.25 37.9522 110.667 38.1139 111.037 38.3585C111.385 38.5866 111.685 38.8811 111.92 39.2253C112.155 39.5694 112.319 39.9565 112.404 40.3643C112.489 40.7721 112.493 41.1926 112.416 41.6019C112.338 42.0112 112.18 42.4011 111.952 42.7495L89.7024 76.5967C89.435 77.0035 89.2737 77.4708 89.2332 77.956C89.1927 78.4412 89.2743 78.9287 89.4706 79.3743C89.6668 79.8198 89.9715 80.2091 90.3568 80.5067C90.7421 80.8043 91.1958 81.0007 91.6764 81.078L139.779 88.806C140.26 88.8832 140.752 88.8389 141.212 88.6769C141.671 88.515 142.082 88.2406 142.408 87.8788C142.734 87.517 142.964 87.0793 143.078 86.6058C143.191 86.1322 143.184 85.6377 143.057 85.1675L132.512 46.0531C132.3 45.2406 132.416 44.3769 132.836 43.6498C133.257 42.9226 133.947 42.3907 134.757 42.1697C135.184 42.053 135.632 42.0303 136.069 42.1032C136.671 42.2007 137.233 42.4704 137.685 42.8799C138.138 43.2894 138.463 43.8212 138.62 44.411L150.56 88.7952C150.706 89.3381 151.006 89.8272 151.424 90.2036C151.841 90.5801 152.359 90.8278 152.914 90.917L190.303 96.9243C190.863 97.0141 191.399 97.2133 191.881 97.5104C192.364 97.8075 192.783 98.1967 193.115 98.6558C193.447 99.1148 193.685 99.6348 193.816 100.186C193.947 100.737 193.969 101.309 193.879 101.868Z" fill="#744C29"/>
<path d="M80.6282 91.2995L71.2061 89.7856C71.1298 89.7734 71.058 89.8253 71.0457 89.9017L59.8164 159.79C59.8041 159.866 59.856 159.938 59.9324 159.95L69.3544 161.464C69.4307 161.476 69.5026 161.425 69.5148 161.348L80.7442 91.46C80.7564 91.3836 80.7045 91.3118 80.6282 91.2995Z" fill="#DEE9FF"/>
<path d="M158.624 103.609L149.202 102.095C149.126 102.082 149.054 102.134 149.042 102.211L137.812 172.099C137.8 172.175 137.852 172.247 137.928 172.259L147.35 173.773C147.427 173.786 147.498 173.734 147.511 173.657L158.74 103.769C158.752 103.693 158.7 103.621 158.624 103.609Z" fill="#DEE9FF"/>
<path d="M100.031 94.4378L90.612 92.9205C90.5357 92.9082 90.4638 92.9601 90.4515 93.0364L79.1968 162.901C79.1845 162.977 79.2364 163.049 79.3127 163.061L88.7315 164.579C88.8078 164.591 88.8796 164.539 88.8919 164.463L100.147 94.5982C100.159 94.5219 100.107 94.4501 100.031 94.4378Z" fill="#DEE9FF"/>
<path d="M119.643 97.3452L110.221 95.8313C110.145 95.819 110.073 95.871 110.061 95.9473L98.8317 165.835C98.8195 165.912 98.8714 165.984 98.9477 165.996L108.37 167.51C108.446 167.522 108.518 167.47 108.53 167.394L119.759 97.5056C119.772 97.4293 119.72 97.3574 119.643 97.3452Z" fill="#DEE9FF"/>
<path d="M139.134 100.477L129.712 98.9629C129.636 98.9506 129.564 99.0026 129.552 99.0789L118.322 168.967C118.31 169.043 118.362 169.115 118.438 169.128L127.86 170.641C127.937 170.654 128.008 170.602 128.021 170.525L139.25 100.637C139.262 100.561 139.21 100.489 139.134 100.477Z" fill="#DEE9FF"/>
</svg>
