<svg width="28" height="21" viewBox="0 0 28 21" fill="none" xmlns="http://www.w3.org/2000/svg">
<g clip-path="url(#clip0_1_50)">
<path d="M6.36366 20.8966V10.1344L3.00858 7.08092L0 5.38644V18.9974C0 20.0483 0.855859 20.8966 1.90914 20.8966H6.36366Z" fill="#4285F4"/>
<path d="M21.6363 20.8966H26.0909C27.1473 20.8966 28 20.0451 28 18.9974V5.38655L24.5923 7.32736L21.6363 10.1344V20.8966Z" fill="#34A853"/>
<path d="M6.36366 10.1344L5.90713 5.9293L6.36366 1.90459L14 7.60222L21.6363 1.90459L22.147 5.71201L21.6363 10.1344L14 15.832L6.36366 10.1344Z" fill="#EA4335"/>
<path d="M21.6363 1.90458V10.1344L28 5.38644V2.85415C28 0.50552 25.305 -0.833366 23.4183 0.575157L21.6363 1.90458Z" fill="#FBBC04"/>
<path d="M0 5.38631L2.92677 7.57009L6.36366 10.1343V1.90444L4.58172 0.575024C2.69172 -0.833608 0 0.505387 0 2.8539V5.3862V5.38631Z" fill="#C5221F"/>
</g>
<defs>
<clipPath id="clip0_1_50">
<rect width="28" height="21" fill="white"/>
</clipPath>
</defs>
</svg>
