<svg width="14" height="17" viewBox="0 0 14 17" fill="none" xmlns="http://www.w3.org/2000/svg">
<path d="M10.4681 10.7926C10.4674 10.8455 10.4511 10.8971 10.4213 10.9409C10.3916 10.9847 10.3496 11.0187 10.3006 11.0389C10.2517 11.0591 10.1979 11.0644 10.1459 11.0543C10.0939 11.0442 10.0461 11.019 10.0083 10.9819L9.14269 10.1434C9.08128 10.0848 9.00803 10.04 8.92787 10.012C8.84771 9.98406 8.7625 9.97356 8.67795 9.98125C8.5934 9.98894 8.51148 10.0146 8.43767 10.0566C8.36387 10.0986 8.29991 10.1558 8.25007 10.2246C8.17204 10.3432 8.13508 10.4842 8.14485 10.6259C8.15462 10.7676 8.21059 10.9022 8.30417 11.009C10.387 12.7942 10.4681 12.7131 10.4681 12.9565V15.0934H12.632V10.2246C12.605 9.38603 11.2525 8.27702 10.4681 7.70898V10.7926Z" fill="#744C29"/>
<path d="M13.3623 15.3369L9.76476 15.3098C9.73669 15.3117 9.71026 15.3237 9.69037 15.3436C9.67047 15.3635 9.65846 15.3899 9.65657 15.418L9.62952 16.3647C9.63142 16.3928 9.64342 16.4192 9.66332 16.4391C9.68321 16.459 9.70964 16.471 9.73771 16.4729L13.3353 16.5L13.4705 16.3647V15.4451C13.4686 15.417 13.4566 15.3906 13.4367 15.3707C13.4168 15.3508 13.3904 15.3388 13.3623 15.3369Z" fill="#744C29"/>
<path d="M9.92705 14.4443V13.6598C9.92705 14.2279 9.41311 13.8221 0.811475 13.9574C0.732781 13.9567 0.65751 13.9251 0.601862 13.8694C0.546215 13.8138 0.51464 13.7385 0.513934 13.6598V3.4623H9.92705V6.62705L10.468 7.00574V0.838525C10.4669 0.616485 10.3782 0.403863 10.2212 0.246855C10.0642 0.0898467 9.85155 0.00113723 9.62951 0H0.838524C0.616484 0.00113723 0.403863 0.0898467 0.246855 0.246855C0.0898466 0.403863 0.00113723 0.616485 0 0.838525V13.6598C0.00113723 13.8819 0.0898466 14.0945 0.246855 14.2515C0.403863 14.4085 0.616484 14.4972 0.838524 14.4984C10.1705 14.4713 9.62951 14.5525 9.92705 14.4443ZM8.11475 1.73115C8.11692 1.76723 8.11141 1.80337 8.09859 1.83717C8.08576 1.87097 8.06591 1.90167 8.04035 1.92723C8.01478 1.9528 7.98409 1.97265 7.95029 1.98547C7.91649 1.9983 7.88035 2.00381 7.84426 2.00164H7.27623C7.24014 2.00381 7.20401 1.9983 7.1702 1.98547C7.1364 1.97265 7.10571 1.9528 7.08014 1.92723C7.05458 1.90167 7.03473 1.87097 7.0219 1.83717C7.00908 1.80337 7.00357 1.76723 7.00574 1.73115C7.00574 1.65941 7.03424 1.59061 7.08496 1.53988C7.13569 1.48915 7.20449 1.46066 7.27623 1.46066H7.84426C7.88035 1.45849 7.91649 1.464 7.95029 1.47682C7.98409 1.48965 8.01478 1.5095 8.04035 1.53506C8.06591 1.56063 8.08576 1.59132 8.09859 1.62512C8.11141 1.65892 8.11692 1.69506 8.11475 1.73115ZM4.38197 1.46066H6.08607C6.15624 1.4654 6.22232 1.49542 6.27205 1.54516C6.32179 1.5949 6.35181 1.66097 6.35656 1.73115C6.35656 1.80289 6.32806 1.87169 6.27733 1.92241C6.2266 1.97314 6.1578 2.00164 6.08607 2.00164H4.38197C4.34588 2.00381 4.30974 1.9983 4.27594 1.98547C4.24214 1.97265 4.21145 1.9528 4.18588 1.92723C4.16032 1.90167 4.14047 1.87097 4.12764 1.83717C4.11482 1.80337 4.10931 1.76723 4.11147 1.73115C4.10931 1.69506 4.11482 1.65892 4.12764 1.62512C4.14047 1.59132 4.16032 1.56063 4.18588 1.53506C4.21145 1.5095 4.24214 1.48965 4.27594 1.47682C4.30974 1.464 4.34588 1.45849 4.38197 1.46066Z" fill="#744C29"/>
<path d="M8.81797 6.95163C8.88815 6.94688 8.95422 6.91686 9.00396 6.86712C9.05369 6.81739 9.08372 6.75131 9.08846 6.68114C9.08846 6.6094 9.05997 6.5406 9.00924 6.48987C8.95851 6.43914 8.88971 6.41064 8.81797 6.41064H6.65404C6.5823 6.41064 6.5135 6.43914 6.46277 6.48987C6.41204 6.5406 6.38354 6.6094 6.38354 6.68114C6.38829 6.75131 6.41831 6.81739 6.46805 6.86712C6.51778 6.91686 6.58386 6.94688 6.65404 6.95163H8.81797Z" fill="#744C29"/>
<path d="M7.79012 8.65573H8.81799C8.88972 8.65573 8.95853 8.62723 9.00925 8.5765C9.05998 8.52578 9.08848 8.45698 9.08848 8.38524C9.08373 8.31506 9.05371 8.24899 9.00397 8.19925C8.95424 8.14951 8.88816 8.11949 8.81799 8.11475H7.79012C7.71994 8.11949 7.65386 8.14951 7.60413 8.19925C7.55439 8.24899 7.52437 8.31506 7.51963 8.38524C7.51746 8.42133 7.52297 8.45746 7.53579 8.49126C7.54862 8.52506 7.56847 8.55576 7.59403 8.58132C7.6196 8.60689 7.65029 8.62674 7.68409 8.63956C7.71789 8.65239 7.75403 8.6579 7.79012 8.65573Z" fill="#744C29"/>
<path d="M6.65404 5.24753H7.97945C8.01553 5.2497 8.05167 5.24419 8.08547 5.23136C8.11927 5.21853 8.14997 5.19868 8.17553 5.17312C8.20109 5.14756 8.22094 5.11686 8.23377 5.08306C8.2466 5.04926 8.25211 5.01312 8.24994 4.97703C8.24994 4.9053 8.22144 4.8365 8.17071 4.78577C8.11999 4.73504 8.05118 4.70654 7.97945 4.70654H6.65404C6.58386 4.71129 6.51778 4.74131 6.46805 4.79105C6.41831 4.84078 6.38829 4.90686 6.38354 4.97703C6.38354 5.04877 6.41204 5.11757 6.46277 5.1683C6.5135 5.21903 6.5823 5.24753 6.65404 5.24753Z" fill="#744C29"/>
<path d="M5.05822 6.84348C5.00965 6.81824 4.95406 6.80987 4.9002 6.81966C4.84635 6.82945 4.79727 6.85686 4.76068 6.89758L4.00331 7.65495L3.21888 6.89758C3.18168 6.85778 3.13265 6.83103 3.07906 6.82129C3.02547 6.81154 2.97016 6.81932 2.92134 6.84348C2.49887 7.04677 2.14259 7.36549 1.89367 7.76279C1.64477 8.16009 1.5134 8.61973 1.51478 9.08856C1.51478 9.98118 2.86724 10.2787 4.00331 10.2787C5.13937 10.2787 6.49183 9.95413 6.49183 9.08856C6.48577 8.61793 6.34834 8.15836 6.09504 7.76168C5.84173 7.36499 5.48263 7.04697 5.05822 6.84348Z" fill="#744C29"/>
<path d="M6.03193 11.1172H1.62291C1.55117 11.1172 1.48237 11.1457 1.43164 11.1964C1.38091 11.2471 1.35242 11.3159 1.35242 11.3877C1.35716 11.4579 1.38719 11.5239 1.43692 11.5737C1.48666 11.6234 1.55273 11.6534 1.62291 11.6582H6.03193C6.1021 11.6534 6.16818 11.6234 6.21791 11.5737C6.26765 11.5239 6.29767 11.4579 6.30242 11.3877C6.30242 11.3159 6.27392 11.2471 6.22319 11.1964C6.17246 11.1457 6.10366 11.1172 6.03193 11.1172Z" fill="#744C29"/>
<path d="M6.03193 12.5509H1.62291C1.55117 12.5509 1.48237 12.5794 1.43164 12.6301C1.38091 12.6808 1.35242 12.7496 1.35242 12.8214C1.35716 12.8915 1.38719 12.9576 1.43692 13.0074C1.48666 13.0571 1.55273 13.0871 1.62291 13.0919H6.03193C6.1021 13.0871 6.16818 13.0571 6.21791 13.0074C6.26765 12.9576 6.29767 12.8915 6.30242 12.8214C6.30459 12.7853 6.29908 12.7491 6.28625 12.7153C6.27342 12.6815 6.25357 12.6508 6.22801 12.6253C6.20245 12.5997 6.17175 12.5799 6.13795 12.567C6.10415 12.5542 6.06801 12.5487 6.03193 12.5509Z" fill="#744C29"/>
<path d="M3.97626 6.65411C4.2063 6.65411 4.43118 6.5859 4.62245 6.45809C4.81372 6.33029 4.9628 6.14863 5.05084 5.9361C5.13887 5.72357 5.1619 5.48971 5.11702 5.26408C5.07214 5.03846 4.96137 4.83121 4.7987 4.66855C4.63604 4.50589 4.42879 4.39511 4.20317 4.35023C3.97755 4.30535 3.74368 4.32839 3.53115 4.41642C3.31862 4.50445 3.13697 4.65353 3.00916 4.8448C2.88136 5.03608 2.81314 5.26095 2.81314 5.491C2.81199 5.64406 2.84129 5.79582 2.89933 5.93746C2.95738 6.0791 3.04301 6.20777 3.15124 6.31601C3.25948 6.42425 3.38816 6.50988 3.52979 6.56792C3.67143 6.62596 3.82319 6.65526 3.97626 6.65411Z" fill="#744C29"/>
</svg>
