<svg width="16" height="19" viewBox="0 0 16 19" fill="none" xmlns="http://www.w3.org/2000/svg">
<path d="M13 6.66667H14.6667C14.8877 6.66667 15.0996 6.75446 15.2559 6.91075C15.4122 7.06703 15.5 7.27899 15.5 7.5V17.5C15.5 17.721 15.4122 17.933 15.2559 18.0893C15.0996 18.2455 14.8877 18.3333 14.6667 18.3333H1.33333C1.11232 18.3333 0.900358 18.2455 0.744078 18.0893C0.587797 17.933 0.5 17.721 0.5 17.5V7.5C0.5 7.27899 0.587797 7.06703 0.744078 6.91075C0.900358 6.75446 1.11232 6.66667 1.33333 6.66667H3V5.83333C3 4.50725 3.52678 3.23548 4.46447 2.2978C5.40215 1.36012 6.67392 0.833334 8 0.833334C9.32608 0.833334 10.5979 1.36012 11.5355 2.2978C12.4732 3.23548 13 4.50725 13 5.83333V6.66667ZM2.16667 8.33333V16.6667H13.8333V8.33333H2.16667ZM7.16667 11.6667H8.83333V13.3333H7.16667V11.6667ZM3.83333 11.6667H5.5V13.3333H3.83333V11.6667ZM10.5 11.6667H12.1667V13.3333H10.5V11.6667ZM11.3333 6.66667V5.83333C11.3333 4.94928 10.9821 4.10143 10.357 3.47631C9.7319 2.85119 8.88406 2.5 8 2.5C7.11594 2.5 6.2681 2.85119 5.64298 3.47631C5.01786 4.10143 4.66667 4.94928 4.66667 5.83333V6.66667H11.3333Z" fill="#BCBCBC"/>
</svg>
