<svg width="16" height="16" viewBox="0 0 16 16" fill="none" xmlns="http://www.w3.org/2000/svg">
<path fill-rule="evenodd" clip-rule="evenodd" d="M9 12.5002V9.75024C9 9.61764 9.05268 9.49046 9.14645 9.39669C9.24021 9.30292 9.36739 9.25024 9.5 9.25024C9.63261 9.25024 9.75979 9.30292 9.85355 9.39669C9.94732 9.49046 10 9.61764 10 9.75024V13.0002C10 13.1329 9.94732 13.26 9.85355 13.3538C9.75979 13.4476 9.63261 13.5002 9.5 13.5002H6.5C6.36739 13.5002 6.24021 13.4476 6.14645 13.3538C6.05268 13.26 6 13.1329 6 13.0002L6 3.00024C6 2.86764 6.05268 2.74046 6.14645 2.64669C6.24021 2.55292 6.36739 2.50024 6.5 2.50024H9.5C9.63261 2.50024 9.75979 2.55292 9.85355 2.64669C9.94732 2.74046 10 2.86764 10 3.00024L10 6.25024C10 6.38285 9.94732 6.51003 9.85355 6.6038C9.75979 6.69757 9.63261 6.75024 9.5 6.75024C9.36739 6.75024 9.24021 6.69757 9.14645 6.6038C9.05268 6.51003 9 6.38285 9 6.25024L9 3.50024H7L7 12.5002H9Z" fill="#744C29"/>
<path fill-rule="evenodd" clip-rule="evenodd" d="M8.5 8.5H13.5C13.6326 8.5 13.7598 8.44732 13.8536 8.35355C13.9473 8.25979 14 8.13261 14 8C14 7.86739 13.9473 7.74021 13.8536 7.64645C13.7598 7.55268 13.6326 7.5 13.5 7.5L8.5 7.5C8.36739 7.5 8.24021 7.55268 8.14645 7.64645C8.05268 7.74021 8 7.86739 8 8C8 8.13261 8.05268 8.25979 8.14645 8.35355C8.24021 8.44732 8.36739 8.5 8.5 8.5Z" fill="#744C29"/>
<path fill-rule="evenodd" clip-rule="evenodd" d="M12.793 7.99998L11.8965 7.10349C11.8027 7.00972 11.7501 6.88257 11.7501 6.74998C11.7501 6.6174 11.8027 6.49025 11.8965 6.39648C11.9902 6.30275 12.1174 6.25009 12.25 6.25009C12.3826 6.25009 12.5097 6.30275 12.6035 6.39648L13.8535 7.64648C13.9472 7.74025 13.9999 7.8674 13.9999 7.99998C13.9999 8.13257 13.9472 8.25972 13.8535 8.35349L12.6035 9.60349C12.5097 9.69722 12.3826 9.74988 12.25 9.74988C12.1174 9.74988 11.9902 9.69722 11.8965 9.60349C11.8027 9.50972 11.7501 9.38257 11.7501 9.24998C11.7501 9.1174 11.8027 8.99025 11.8965 8.89648L12.793 7.99998Z" fill="#744C29"/>
<path fill-rule="evenodd" clip-rule="evenodd" d="M2.3245 2.53171C2.22908 2.56736 2.14682 2.63131 2.08874 2.71499C2.03066 2.79867 1.99953 2.8981 1.9995 2.99996L1.9995 13C1.99953 13.1018 2.03066 13.2013 2.08874 13.2849C2.14682 13.3686 2.22908 13.4326 2.3245 13.4682L6.3245 14.9682C6.40014 14.9965 6.48151 15.0061 6.56166 14.9962C6.64182 14.9862 6.71836 14.957 6.78475 14.911C6.85117 14.8649 6.90544 14.8035 6.94293 14.7319C6.98042 14.6604 7 14.5808 7 14.5L7 1.49996C7 1.41916 6.98042 1.33956 6.94293 1.26798C6.90544 1.1964 6.85117 1.13498 6.78475 1.08896C6.71836 1.04295 6.64182 1.01371 6.56166 1.00374C6.48151 0.993771 6.40014 1.00337 6.3245 1.03171L2.3245 2.53171ZM2.9995 3.34646L2.9995 12.6535L5.9995 13.7785L5.9995 2.22146L2.9995 3.34646Z" fill="#744C29"/>
<path fill-rule="evenodd" clip-rule="evenodd" d="M5 7.5H4.5C4.36739 7.5 4.24021 7.55268 4.14645 7.64645C4.05268 7.74021 4 7.86739 4 8C4 8.13261 4.05268 8.25979 4.14645 8.35355C4.24021 8.44732 4.36739 8.5 4.5 8.5H5C5.13261 8.5 5.25979 8.44732 5.35355 8.35355C5.44732 8.25979 5.5 8.13261 5.5 8C5.5 7.86739 5.44732 7.74021 5.35355 7.64645C5.25979 7.55268 5.13261 7.5 5 7.5Z" fill="#744C29"/>
</svg>
