<svg width="16" height="16" viewBox="0 0 16 16" fill="none" xmlns="http://www.w3.org/2000/svg">
<path d="M14.7676 12.9141C14.3991 12.0414 13.8645 11.2486 13.1933 10.5801C12.5243 9.90959 11.7317 9.37501 10.8594 9.00586C10.8516 9.00195 10.8437 9 10.8359 8.99609C12.0527 8.11719 12.8437 6.68555 12.8437 5.07031C12.8437 2.39453 10.6758 0.226562 7.99999 0.226562C5.32421 0.226562 3.15624 2.39453 3.15624 5.07031C3.15624 6.68555 3.94725 8.11719 5.16405 8.99805C5.15624 9.00195 5.14843 9.00391 5.14061 9.00781C4.26561 9.37695 3.48046 9.90625 2.80663 10.582C2.13614 11.2511 1.60156 12.0437 1.23241 12.916C0.869758 13.77 0.674171 14.6856 0.656238 15.6133C0.655717 15.6341 0.659373 15.6549 0.666991 15.6743C0.67461 15.6937 0.686037 15.7114 0.700598 15.7263C0.715159 15.7412 0.732561 15.7531 0.751777 15.7612C0.770993 15.7693 0.791636 15.7734 0.812488 15.7734H1.98436C2.0703 15.7734 2.13866 15.7051 2.14061 15.6211C2.17968 14.1133 2.78514 12.7012 3.85546 11.6309C4.96288 10.5234 6.43358 9.91406 7.99999 9.91406C9.56639 9.91406 11.0371 10.5234 12.1445 11.6309C13.2148 12.7012 13.8203 14.1133 13.8594 15.6211C13.8613 15.707 13.9297 15.7734 14.0156 15.7734H15.1875C15.2083 15.7734 15.229 15.7693 15.2482 15.7612C15.2674 15.7531 15.2848 15.7412 15.2994 15.7263C15.3139 15.7114 15.3254 15.6937 15.333 15.6743C15.3406 15.6549 15.3443 15.6341 15.3437 15.6133C15.3242 14.6797 15.1308 13.7715 14.7676 12.9141V12.9141ZM7.99999 8.42969C7.1035 8.42969 6.25975 8.08008 5.62499 7.44531C4.99022 6.81055 4.64061 5.9668 4.64061 5.07031C4.64061 4.17383 4.99022 3.33008 5.62499 2.69531C6.25975 2.06055 7.1035 1.71094 7.99999 1.71094C8.89647 1.71094 9.74022 2.06055 10.375 2.69531C11.0098 3.33008 11.3594 4.17383 11.3594 5.07031C11.3594 5.9668 11.0098 6.81055 10.375 7.44531C9.74022 8.08008 8.89647 8.42969 7.99999 8.42969Z" fill="white"/>
</svg>
