<svg width="48" height="40" viewBox="0 0 48 40" fill="none" xmlns="http://www.w3.org/2000/svg">
<g clip-path="url(#clip0_407_24873)">
<path d="M24 24C24.9889 24 25.9556 23.7068 26.7779 23.1573C27.6001 22.6079 28.241 21.827 28.6194 20.9134C28.9978 19.9998 29.0969 18.9945 28.9039 18.0246C28.711 17.0546 28.2348 16.1637 27.5355 15.4645C26.8363 14.7652 25.9454 14.289 24.9755 14.0961C24.0055 13.9031 23.0002 14.0022 22.0866 14.3806C21.173 14.759 20.3921 15.3999 19.8427 16.2222C19.2932 17.0444 19 18.0111 19 19C19.0013 20.3257 19.5285 21.5967 20.4659 22.5341C21.4033 23.4715 22.6743 23.9987 24 24ZM24 15.6667C24.6593 15.6667 25.3037 15.8622 25.8519 16.2284C26.4001 16.5947 26.8273 17.1153 27.0796 17.7244C27.3319 18.3335 27.3979 19.0037 27.2693 19.6503C27.1407 20.2969 26.8232 20.8909 26.357 21.357C25.8908 21.8232 25.2969 22.1407 24.6503 22.2693C24.0037 22.3979 23.3335 22.3319 22.7244 22.0796C22.1153 21.8273 21.5947 21.4001 21.2284 20.8519C20.8622 20.3037 20.6667 19.6593 20.6667 19C20.6667 18.1159 21.0179 17.2681 21.643 16.643C22.2681 16.0179 23.1159 15.6667 24 15.6667Z" fill="#081F3A"/>
<path d="M24 25.667C22.0116 25.6692 20.1052 26.4601 18.6991 27.8661C17.2931 29.2722 16.5022 31.1785 16.5 33.167C16.5 33.388 16.5878 33.6 16.7441 33.7562C16.9004 33.9125 17.1123 34.0003 17.3333 34.0003C17.5543 34.0003 17.7663 33.9125 17.9226 33.7562C18.0789 33.6 18.1667 33.388 18.1667 33.167C18.1667 31.6199 18.7812 30.1362 19.8752 29.0422C20.9692 27.9482 22.4529 27.3337 24 27.3337C25.5471 27.3337 27.0308 27.9482 28.1248 29.0422C29.2188 30.1362 29.8333 31.6199 29.8333 33.167C29.8333 33.388 29.9211 33.6 30.0774 33.7562C30.2337 33.9125 30.4457 34.0003 30.6667 34.0003C30.8877 34.0003 31.0996 33.9125 31.2559 33.7562C31.4122 33.6 31.5 33.388 31.5 33.167C31.4978 31.1785 30.7069 29.2722 29.3009 27.8661C27.8948 26.4601 25.9884 25.6692 24 25.667Z" fill="#081F3A"/>
</g>
<!-- <path d="M48 47H0V49H48V47Z" fill="#081F3A" mask="url(#path-1-inside-1_407_24873)"/> -->
<defs>
<clipPath id="clip0_407_24873">
<rect width="20" height="20" fill="white" transform="translate(14 14)"/>
</clipPath>
</defs>
</svg>
